<?xml version="1.0" encoding="UTF-8"?>
<svg xmlns="http://www.w3.org/2000/svg" xmlns:xlink="http://www.w3.org/1999/xlink" width="40px" height="40px" viewBox="0 0 40 40" version="1.1">
<g id="surface1">
<path style=" stroke:none;fill-rule:nonzero;fill:rgb(20%,45.882353%,73.333333%);fill-opacity:1;" d="M 40 20 C 40 31.046875 31.046875 40 20 40 C 8.953125 40 0 31.046875 0 20 C 0 8.953125 8.953125 0 20 0 C 31.046875 0 40 8.953125 40 20 Z M 40 20 "/>
<path style=" stroke:none;fill-rule:evenodd;fill:rgb(100%,100%,100%);fill-opacity:1;" d="M 29.816406 10.089844 C 30.164062 10.09375 30.496094 10.230469 30.742188 10.480469 C 30.984375 10.726562 31.121094 11.0625 31.117188 11.410156 C 31.054688 15.136719 30.910156 17.984375 30.640625 20.242188 C 30.378906 22.5 29.984375 24.175781 29.390625 25.53125 C 28.992188 26.4375 28.496094 27.1875 27.917969 27.824219 C 27.132812 28.667969 26.242188 29.28125 25.265625 29.863281 C 24.851562 30.113281 24.417969 30.359375 23.960938 30.617188 C 22.992188 31.167969 21.925781 31.773438 20.714844 32.582031 C 20.28125 32.875 19.710938 32.875 19.273438 32.582031 C 18.046875 31.761719 16.964844 31.148438 15.988281 30.597656 C 15.769531 30.472656 15.554688 30.351562 15.347656 30.230469 C 14.203125 29.570312 13.175781 28.9375 12.273438 28.027344 C 11.675781 27.425781 11.15625 26.695312 10.742188 25.824219 C 10.179688 24.664062 9.796875 23.257812 9.519531 21.4375 C 9.140625 19.003906 8.953125 15.820312 8.882812 11.410156 C 8.878906 11.0625 9.011719 10.726562 9.253906 10.480469 C 9.5 10.234375 9.835938 10.09375 10.183594 10.09375 L 10.722656 10.09375 C 12.378906 10.097656 16.035156 9.9375 19.195312 7.472656 C 19.664062 7.113281 20.320312 7.113281 20.789062 7.472656 C 23.953125 9.9375 27.609375 10.101562 29.273438 10.09375 M 26.910156 24.699219 C 27.316406 23.859375 27.652344 22.703125 27.910156 21.042969 C 28.214844 19.054688 28.402344 16.355469 28.492188 12.679688 C 26.542969 12.625 23.191406 12.25 19.996094 10.097656 C 16.804688 12.242188 13.453125 12.617188 11.511719 12.679688 C 11.578125 15.71875 11.714844 18.078125 11.933594 19.9375 C 12.183594 22.046875 12.539062 23.480469 12.984375 24.484375 C 13.277344 25.15625 13.605469 25.636719 13.992188 26.0625 C 14.511719 26.628906 15.164062 27.097656 16.058594 27.636719 C 16.429688 27.859375 16.839844 28.09375 17.28125 28.34375 C 18.074219 28.792969 18.984375 29.304688 19.996094 29.949219 C 20.988281 29.316406 21.882812 28.808594 22.667969 28.363281 C 22.902344 28.226562 23.128906 28.101562 23.34375 27.972656 C 24.445312 27.34375 25.257812 26.820312 25.863281 26.207031 C 26.273438 25.785156 26.605469 25.328125 26.910156 24.699219 "/>
</g>
</svg>
